<svg version="1.1" viewBox="0 0 162.92 42.93" xmlns="http://www.w3.org/2000/svg">
 <defs>
  <style>.a72e7b5c-9b7e-44e1-a58f-1d1e3a89724f{fill:#3a74b9;}.e2e6c644-8e46-4306-9889-7a7dd03d8473{fill:#aaa5a4;}.f471b8ea-7d7a-4db7-99a3-d64268f2382c{font-size:12px;fill:#fff;font-family:Poppins-Bold, Poppins;font-weight:700;}.eb21f448-2f08-411b-9105-f234533b1e94{fill:#3973b9;}</style>
 </defs>
 <g data-name="Capa 6">
  <rect class="a72e7b5c-9b7e-44e1-a58f-1d1e3a89724f" width="162.92" height="42.93" rx="21.47"/>
  <path class="e2e6c644-8e46-4306-9889-7a7dd03d8473" d="M162.92,21.47a21.46,21.46,0,0,1-21.47,21.46h-120A21.46,21.46,0,0,1,0,21.47Z"/>
 </g>
 <g data-name="Capa 8">
  <g class="f471b8ea-7d7a-4db7-99a3-d64268f2382c" transform="translate(35.52 15.91)" fill="#fff" aria-label="Check out with">
   <path d="m0.396-4.224c0 2.52 1.752 4.284 4.236 4.284 2.004 0 3.516-1.116 3.996-2.94h-2.256c-0.348 0.72-0.984 1.08-1.764 1.08-1.26 0-2.124-0.936-2.124-2.424s0.864-2.424 2.124-2.424c0.78 0 1.416 0.36 1.764 1.08h2.256c-0.48-1.824-1.992-2.952-3.996-2.952-2.484 0-4.236 1.776-4.236 4.296z"/>
   <path d="m9.888 0h2.052v-3.636c0-0.912 0.504-1.416 1.284-1.416s1.284 0.504 1.284 1.416v3.636h2.04v-3.912c0-1.8-1.02-2.856-2.544-2.856-0.924 0-1.656 0.396-2.064 0.972v-3.084h-2.052z"/>
   <path d="m20.928-5.148c0.684 0 1.26 0.42 1.26 1.152h-2.568c0.12-0.744 0.636-1.152 1.308-1.152zm3.204 2.928h-2.184c-0.168 0.36-0.492 0.648-1.068 0.648-0.66 0-1.2-0.408-1.272-1.284h4.644c0.024-0.204 0.036-0.408 0.036-0.6 0-2.04-1.38-3.336-3.336-3.336-1.992 0-3.384 1.32-3.384 3.444s1.416 3.444 3.384 3.444c1.668 0 2.856-1.008 3.18-2.316z"/>
   <path d="m24.96-3.348c0 2.124 1.392 3.444 3.36 3.444 1.68 0 2.868-0.972 3.216-2.52h-2.184c-0.18 0.492-0.504 0.768-1.068 0.768-0.732 0-1.236-0.576-1.236-1.692s0.504-1.692 1.236-1.692c0.564 0 0.9 0.3 1.068 0.768h2.184c-0.348-1.596-1.536-2.52-3.216-2.52-1.968 0-3.36 1.332-3.36 3.444z"/>
   <path d="m32.628 0h2.052v-2.808l2.04 2.808h2.544l-2.808-3.336 2.784-3.36h-2.532l-2.028 2.724v-4.908h-2.052z"/>
   <path d="m49.14-3.348c0-2.124-1.512-3.444-3.48-3.444-1.956 0-3.48 1.32-3.48 3.444s1.488 3.444 3.456 3.444 3.504-1.32 3.504-3.444zm-4.872 0c0-1.14 0.648-1.668 1.392-1.668 0.72 0 1.392 0.528 1.392 1.668 0 1.128-0.684 1.668-1.416 1.668-0.744 0-1.368-0.54-1.368-1.668z"/>
   <path d="m56.844-6.696h-2.052v3.636c0 0.912-0.504 1.416-1.296 1.416-0.768 0-1.284-0.504-1.284-1.416v-3.636h-2.04v3.912c0 1.788 1.044 2.856 2.592 2.856 0.9 0 1.62-0.408 2.028-0.984v0.912h2.052z"/>
   <path d="m58.644-2.328c0 1.74 0.972 2.328 2.364 2.328h1.044v-1.74h-0.732c-0.456 0-0.624-0.168-0.624-0.564v-2.688h1.344v-1.704h-1.344v-1.632h-2.052v1.632h-0.816v1.704h0.816z"/>
   <path d="m66.864 0h2.256l1.092-4.344 1.056 4.344h2.268l1.812-6.696h-1.932l-0.936 4.764-1.14-4.764h-2.172l-1.128 4.788-0.948-4.788h-2.052z"/>
   <path d="m76.128 0h2.052v-6.696h-2.052zm1.032-7.392c0.72 0 1.212-0.492 1.212-1.104 0-0.624-0.492-1.116-1.212-1.116-0.732 0-1.224 0.492-1.224 1.116 0 0.612 0.492 1.104 1.224 1.104z"/>
   <path d="m79.992-2.328c0 1.74 0.972 2.328 2.364 2.328h1.044v-1.74h-0.732c-0.456 0-0.624-0.168-0.624-0.564v-2.688h1.344v-1.704h-1.344v-1.632h-2.052v1.632h-0.816v1.704h0.816z"/>
   <path d="m84.54 0h2.052v-3.636c0-0.912 0.504-1.416 1.284-1.416s1.284 0.504 1.284 1.416v3.636h2.04v-3.912c0-1.8-1.02-2.856-2.544-2.856-0.924 0-1.656 0.396-2.064 0.972v-3.084h-2.052z"/>
  </g>
 </g>
 <g data-name="Capa 4">
  <g id="a" data-name="tituloWeGetFinancing">
   <path class="eb21f448-2f08-411b-9105-f234533b1e94" d="M33.94,35.28l-2.31-6.43-2.38,6.43h-1.8l-3.17-8.62h1.93l2.2,6.62,2.37-6.62h1.7l2.32,6.62,2.27-6.62H39l-3.23,8.62Zm7.45,0a2.92,2.92,0,0,1-1.91-.57,2.25,2.25,0,0,1-.68-1.82v-2a2.25,2.25,0,0,1,.68-1.82,3,3,0,0,1,1.91-.56h2.24a3,3,0,0,1,1.92.56,2.22,2.22,0,0,1,.68,1.82v1.59H40.44v.41a.89.89,0,0,0,.25.73,1,1,0,0,0,.68.2h4.7l-.21,1.46ZM44.56,31a1.14,1.14,0,0,0-.21-.78,1,1,0,0,0-.72-.23H41.38a.92.92,0,0,0-.71.22,1,1,0,0,0-.22.7v.54h4.1Zm11.15,4.3-.05-1.06a.87.87,0,0,1-.17.38,1.57,1.57,0,0,1-.34.34,1.4,1.4,0,0,1-.49.24,2.05,2.05,0,0,1-.65.1H50.34A5.78,5.78,0,0,1,49,35.14a1.5,1.5,0,0,1-.83-.46,1.84,1.84,0,0,1-.43-.83,6.71,6.71,0,0,1-.11-1.35V29.45a6.28,6.28,0,0,1,.11-1.3,2,2,0,0,1,.43-.87,1.57,1.57,0,0,1,.83-.47,4.84,4.84,0,0,1,1.31-.15h4.37a2.29,2.29,0,0,1,.83.13,2.19,2.19,0,0,1,.6.33,1.42,1.42,0,0,1,.4.41,2.65,2.65,0,0,1,.23.39L55.7,29a1.47,1.47,0,0,0-.36-.46,1.09,1.09,0,0,0-.74-.21H50.36a1.08,1.08,0,0,0-.83.23,1.31,1.31,0,0,0-.21.82V32.2a4.21,4.21,0,0,0,0,.71.79.79,0,0,0,.16.4.57.57,0,0,0,.32.2,2.7,2.7,0,0,0,.49,0h3.92a1.66,1.66,0,0,0,1-.21.69.69,0,0,0,.29-.6V31.67H52.25v-1.4h4.82v5Zm5.46,0a2.92,2.92,0,0,1-1.91-.57,2.25,2.25,0,0,1-.68-1.82v-2a2.25,2.25,0,0,1,.68-1.82,3,3,0,0,1,1.91-.56h2.24a3,3,0,0,1,1.91.56,2.22,2.22,0,0,1,.7,1.82v1.59h-5.8v.41a.92.92,0,0,0,.24.73,1,1,0,0,0,.69.2h4.7l-.16,1.46ZM64.34,31a1.15,1.15,0,0,0-.22-.78.92.92,0,0,0-.71-.23H61.17a.78.78,0,0,0-.92.62.76.76,0,0,0,0,.3v.54h4.09ZM71,35.19a1.32,1.32,0,0,1-.39.15,2.88,2.88,0,0,1-.59.06,2,2,0,0,1-1.83-.83,4.4,4.4,0,0,1-.55-2.41V29.75h-.77L67,28.51h.56V27l1.65-.55v2.05h1.4l-.2,1.24H69.27v2.41a2.73,2.73,0,0,0,.27,1.35,1,1,0,0,0,.92.44,1.32,1.32,0,0,0,.75-.17Zm2.88-3.35v3.44H72.19V26.66h8.08v1.7H73.84v2H80.1v1.5Zm7.66-3.92V26.14h1.66v1.78Zm0,7.36V28.51h1.66v6.77Zm8.84,0V31a1.25,1.25,0,0,0-.2-.82.89.89,0,0,0-.73-.25H87.22a.77.77,0,0,0-.55.15,1,1,0,0,0-.29.49v4.67H84.73V28.51h1.61v1a1.73,1.73,0,0,1,.64-.75,1.77,1.77,0,0,1,1-.23h1.47a4,4,0,0,1,1.24.17,1.68,1.68,0,0,1,.83.49,2.06,2.06,0,0,1,.43.83A4.46,4.46,0,0,1,92,31.2v4.06Zm5.17,0a2.73,2.73,0,0,1-1.65-.41,1.52,1.52,0,0,1-.49-1.25v-.74a1.41,1.41,0,0,1,.47-1.23,2.83,2.83,0,0,1,1.66-.37h2.31a2.84,2.84,0,0,1,.77.08,4.22,4.22,0,0,1,.45.18v-.78a.63.63,0,0,0-.29-.63,2.3,2.3,0,0,0-1-.15H93.84L94,28.51h4a4.4,4.4,0,0,1,1.35.18,2,2,0,0,1,.83.45,1.54,1.54,0,0,1,.4.67,2.91,2.91,0,0,1,.11.83v4.64a1.29,1.29,0,0,1-.69-.23,1.24,1.24,0,0,1-.44-.83A1.45,1.45,0,0,1,99,35a2.08,2.08,0,0,1-1.19.31ZM99,32.5a3,3,0,0,0-.49-.13,4.68,4.68,0,0,0-.74,0h-2a.87.87,0,0,0-.58.16.74.74,0,0,0-.17.59.63.63,0,0,0,.73.75h2.05a2,2,0,0,0,.83-.15.74.74,0,0,0,.44-.58Zm8.74,2.78V31a1.2,1.2,0,0,0-.21-.82.87.87,0,0,0-.72-.25h-2.18a.84.84,0,0,0-.55.15.93.93,0,0,0-.28.49v4.67h-1.71V28.51h1.66v1a1.71,1.71,0,0,1,.63-.75,1.83,1.83,0,0,1,1-.23h1.48a4,4,0,0,1,1.24.17,1.72,1.72,0,0,1,.83.49,2.2,2.2,0,0,1,.43.83,4.9,4.9,0,0,1,.13,1.2v4.06Zm5.75,0a2.93,2.93,0,0,1-1.92-.57,2.25,2.25,0,0,1-.68-1.82v-2a2.25,2.25,0,0,1,.68-1.82,3,3,0,0,1,1.92-.56h2.77a2.22,2.22,0,0,1,.72.12,1.72,1.72,0,0,1,.52.27,1.46,1.46,0,0,1,.34.36,1.92,1.92,0,0,1,.18.35l-.91.95a1.27,1.27,0,0,0-.31-.42.92.92,0,0,0-.62-.17h-2.69a1,1,0,0,0-.69.22.87.87,0,0,0-.24.7v2a.89.89,0,0,0,.24.71,1,1,0,0,0,.69.22h2.74a.93.93,0,0,0,.63-.17,1.23,1.23,0,0,0,.32-.4l.92.93a3.9,3.9,0,0,1-.19.35,1.71,1.71,0,0,1-.35.36,2.08,2.08,0,0,1-.51.27,2.27,2.27,0,0,1-.72.12Zm5.89-7.36V26.14h1.66v1.78Zm0,7.36V28.51h1.66v6.77Zm8.84,0V31a1.25,1.25,0,0,0-.2-.82.9.9,0,0,0-.73-.25h-2.18a.82.82,0,0,0-.55.15,1,1,0,0,0-.29.49v4.67h-1.65V28.51h1.6v1a1.71,1.71,0,0,1,.63-.75,1.85,1.85,0,0,1,1-.23h1.48a4,4,0,0,1,1.24.17,1.72,1.72,0,0,1,.83.49,2.08,2.08,0,0,1,.44.83,4.89,4.89,0,0,1,.12,1.2v4.06ZM137,33.43a2.06,2.06,0,0,1-.35.52,1.12,1.12,0,0,1-.41.3,1.68,1.68,0,0,1-.53.15h-1.88a4.28,4.28,0,0,1-1.23-.15,1.89,1.89,0,0,1-.83-.46,1.76,1.76,0,0,1-.44-.83,4.45,4.45,0,0,1-.12-1.15v-.65a4.84,4.84,0,0,1,.12-1.2,2,2,0,0,1,.44-.83,1.72,1.72,0,0,1,.83-.49,4,4,0,0,1,1.23-.17h1.45a3.42,3.42,0,0,1,.46,0,2.13,2.13,0,0,1,.51.14,2.09,2.09,0,0,1,.47.3,1.24,1.24,0,0,1,.34.51v-1h1.62v5.65a5.82,5.82,0,0,1-.13,1.17,2.27,2.27,0,0,1-.48,1,2.33,2.33,0,0,1-1,.67,4.47,4.47,0,0,1-1.66.25,6.8,6.8,0,0,1-.9-.06,6.63,6.63,0,0,1-.88-.21l.2-1.33a5.11,5.11,0,0,0,.75.18,6.61,6.61,0,0,0,.76.05,2.43,2.43,0,0,0,.77-.12,1.21,1.21,0,0,0,.49-.34,1.32,1.32,0,0,0,.26-.53,2.77,2.77,0,0,0,.07-.7Zm0-2.81a.86.86,0,0,0-.33-.5A1.06,1.06,0,0,0,136,30H133.9a1.61,1.61,0,0,0-.49.06.64.64,0,0,0-.32.21.88.88,0,0,0-.17.41,2.94,2.94,0,0,0,0,.66v.45a3.3,3.3,0,0,0,0,.7,1,1,0,0,0,.18.41.58.58,0,0,0,.31.19,2.59,2.59,0,0,0,.48,0h2a1.6,1.6,0,0,0,.71-.13.76.76,0,0,0,.34-.51Z"/>
  </g>
 </g>
</svg>
