<?xml version="1.0" encoding="UTF-8" standalone="no"?>
<svg
   xmlns:dc="http://purl.org/dc/elements/1.1/"
   xmlns:cc="http://creativecommons.org/ns#"
   xmlns:rdf="http://www.w3.org/1999/02/22-rdf-syntax-ns#"
   xmlns:svg="http://www.w3.org/2000/svg"
   xmlns="http://www.w3.org/2000/svg"
   xmlns:sodipodi="http://sodipodi.sourceforge.net/DTD/sodipodi-0.dtd"
   xmlns:inkscape="http://www.inkscape.org/namespaces/inkscape"
   width="266.94128"
   height="28.171122"
   viewBox="0 0 266.94129 28.171122"
   version="1.1"
   id="svg22"
   sodipodi:docname="logo2.svg"
   inkscape:version="1.0.2 (e86c870879, 2021-01-15)">
  <metadata
     id="metadata28">
    <rdf:RDF>
      <cc:Work
         rdf:about="">
        <dc:format>image/svg+xml</dc:format>
        <dc:type
           rdf:resource="http://purl.org/dc/dcmitype/StillImage" />
      </cc:Work>
    </rdf:RDF>
  </metadata>
  <defs
     id="defs26" />
  <sodipodi:namedview
     pagecolor="#ffffff"
     bordercolor="#666666"
     borderopacity="1"
     objecttolerance="10"
     gridtolerance="10"
     guidetolerance="10"
     inkscape:pageopacity="0"
     inkscape:pageshadow="2"
     inkscape:window-width="1920"
     inkscape:window-height="1009"
     id="namedview24"
     showgrid="false"
     inkscape:zoom="2.6962025"
     inkscape:cx="161.42052"
     inkscape:cy="67.616488"
     inkscape:window-x="0"
     inkscape:window-y="0"
     inkscape:window-maximized="1"
     inkscape:current-layer="svg22"
     inkscape:document-rotation="0" />
  <g
     style="fill:none;fill-rule:nonzero"
     id="g8"
     transform="translate(-49.058713,-14.25641)">
    <path
       style="fill:#3973b9"
       inkscape:connector-curvature="0"
       id="path6"
       d="M 98.406,36.658 93.614,23.327 88.69,36.657 H 84.908 L 78.313,18.751 h 4.001 l 4.573,13.727 4.924,-13.727 h 3.562 l 4.792,13.771 4.704,-13.77 h 4.002 l -6.684,17.906 h -3.78 z m 15.477,0 c -1.715,0 -3.034,-0.396 -3.957,-1.144 -0.924,-0.748 -1.407,-2.024 -1.451,-3.784 v -4.136 c 0,-1.76 0.483,-3.035 1.407,-3.783 0.923,-0.748 2.286,-1.144 3.957,-1.144 h 4.66 c 1.715,0 3.034,0.396 4.001,1.144 0.968,0.748 1.407,2.024 1.407,3.783 v 3.3 h -12.003 v 0.88 c 0,0.748 0.176,1.232 0.484,1.496 0.396,0.308 0.923,0.484 1.407,0.44 h 9.76 l -0.44,3.036 z m 6.595,-8.932 a 2.416,2.416 0 0 0 -0.44,-1.627 2.05,2.05 0 0 0 -1.495,-0.484 h -4.66 c -0.528,-0.044 -1.055,0.132 -1.495,0.484 a 2.116,2.116 0 0 0 -0.44,1.451 v 1.1 h 8.53 z m 23.17,8.932 -0.087,-2.2 a 1.834,1.834 0 0 1 -0.352,0.792 c -0.176,0.264 -0.44,0.528 -0.704,0.704 a 4.43,4.43 0 0 1 -1.01,0.528 c -0.44,0.132 -0.88,0.22 -1.364,0.176 h -7.606 a 13.97,13.97 0 0 1 -2.726,-0.264 c -0.66,-0.132 -1.231,-0.484 -1.715,-0.968 a 3.71,3.71 0 0 1 -0.88,-1.76 14.91,14.91 0 0 1 -0.263,-2.816 v -6.29 c 0,-0.924 0.088,-1.848 0.264,-2.728 0.132,-0.66 0.44,-1.276 0.88,-1.804 0.483,-0.484 1.054,-0.836 1.714,-0.968 0.88,-0.22 1.803,-0.308 2.726,-0.308 h 9.057 c 1.055,-0.044 2.11,0.308 2.99,0.968 0.308,0.264 0.615,0.528 0.835,0.88 0.176,0.264 0.352,0.528 0.484,0.836 l -2.198,2.288 a 3.181,3.181 0 0 0 -0.748,-0.968 2.349,2.349 0 0 0 -1.539,-0.44 h -8.837 c -0.836,0 -1.363,0.176 -1.67,0.484 -0.309,0.308 -0.44,0.924 -0.44,1.804 v 5.807 c 0,0.484 0,1.012 0.087,1.496 0.044,0.308 0.132,0.616 0.352,0.836 0.176,0.22 0.396,0.352 0.66,0.396 0.351,0.088 0.66,0.088 1.01,0.088 h 8.135 c 1.011,0 1.67,-0.132 2.066,-0.44 0.396,-0.308 0.616,-0.792 0.572,-1.276 v -2.288 h -6.727 V 26.32 h 10.024 v 10.427 l -2.99,-0.088 z m 11.344,0 c -1.715,0 -3.034,-0.396 -3.957,-1.144 -0.923,-0.748 -1.45,-2.068 -1.45,-3.828 V 27.55 c 0,-1.76 0.483,-3.035 1.406,-3.783 0.923,-0.792 2.242,-1.144 3.957,-1.144 h 4.66 c 1.715,0 3.034,0.396 4.002,1.144 0.967,0.792 1.407,2.024 1.407,3.783 v 3.3 h -12.003 v 0.88 c 0,0.748 0.175,1.232 0.527,1.496 0.396,0.308 0.924,0.484 1.407,0.44 h 9.76 l -0.439,3.036 z m 6.595,-8.932 a 2.416,2.416 0 0 0 -0.44,-1.627 2.05,2.05 0 0 0 -1.494,-0.484 h -4.705 c -0.527,-0.044 -1.055,0.132 -1.495,0.484 a 2.116,2.116 0 0 0 -0.44,1.451 v 1.1 h 8.53 z m 13.806,8.756 c -0.264,0.132 -0.528,0.22 -0.835,0.308 a 5.857,5.857 0 0 1 -1.232,0.132 c -1.758,0 -3.033,-0.572 -3.78,-1.716 -0.748,-1.144 -1.144,-2.816 -1.144,-5.06 v -4.971 h -1.583 l 0.44,-2.596 h 1.187 v -3.124 l 3.473,-1.144 v 4.268 h 2.902 l -0.44,2.596 h -2.505 v 4.971 c 0,1.232 0.175,2.2 0.571,2.816 0.396,0.616 1.1,1.012 1.847,0.968 0.527,0.044 1.099,-0.088 1.539,-0.352 z m 5.98,-6.952 v 7.128 h -3.518 V 18.75 h 16.796 v 3.52 h -13.323 v 4.136 h 13.015 v 3.123 h -12.97 z m 15.916,-8.139 v -3.74 h 3.517 v 3.74 z m 0,15.267 V 22.579 h 3.473 v 14.079 z m 18.378,0 V 27.77 a 2.416,2.416 0 0 0 -0.44,-1.627 c -0.264,-0.352 -0.791,-0.528 -1.495,-0.528 h -4.528 c -0.396,-0.044 -0.792,0.088 -1.143,0.308 -0.308,0.264 -0.484,0.616 -0.616,1.012 v 9.679 h -3.43 V 22.535 h 3.342 v 2.024 c 0.308,-0.616 0.747,-1.188 1.32,-1.584 0.615,-0.308 1.318,-0.484 2.022,-0.44 h 3.077 c 0.88,0 1.759,0.088 2.594,0.352 0.66,0.176 1.231,0.528 1.671,1.056 0.44,0.528 0.748,1.1 0.88,1.76 0.175,0.836 0.307,1.672 0.263,2.507 v 8.448 z m 10.728,0 c -1.67,0 -2.814,-0.264 -3.518,-0.836 -0.703,-0.572 -1.01,-1.408 -1.01,-2.596 v -1.54 c 0,-1.188 0.351,-2.068 1.054,-2.552 0.704,-0.528 1.847,-0.748 3.43,-0.748 h 4.836 a 6.47,6.47 0 0 1 1.583,0.176 c 0.308,0.088 0.66,0.22 0.923,0.396 v -1.671 c 0,-0.66 -0.22,-1.1 -0.615,-1.32 a 4.543,4.543 0 0 0 -2.023,-0.308 h -8.134 l 0.352,-3.036 h 8.222 a 8.676,8.676 0 0 1 2.814,0.352 c 0.615,0.176 1.231,0.484 1.715,0.968 0.395,0.396 0.703,0.88 0.835,1.408 0.176,0.572 0.22,1.144 0.22,1.716 v 9.635 a 2.398,2.398 0 0 1 -1.451,-0.484 2.667,2.667 0 0 1 -0.923,-1.716 3.052,3.052 0 0 1 -1.187,1.584 c -0.748,0.44 -1.583,0.66 -2.463,0.616 z m 7.298,-5.764 c -0.307,-0.132 -0.66,-0.22 -1.01,-0.308 -0.528,-0.088 -1.012,-0.132 -1.54,-0.088 h -4.265 c -0.44,-0.044 -0.835,0.088 -1.187,0.308 -0.307,0.352 -0.44,0.792 -0.351,1.232 -0.044,0.44 0.088,0.88 0.351,1.232 0.352,0.264 0.748,0.396 1.187,0.352 h 4.221 c 0.572,0 1.143,-0.088 1.671,-0.308 0.484,-0.22 0.835,-0.66 0.88,-1.188 z m 18.159,5.764 V 27.77 a 2.416,2.416 0 0 0 -0.44,-1.627 c -0.264,-0.352 -0.791,-0.528 -1.495,-0.528 h -4.528 a 1.734,1.734 0 0 0 -1.143,0.308 c -0.308,0.264 -0.484,0.616 -0.616,1.012 v 9.679 h -3.473 V 22.535 h 3.341 v 2.024 c 0.308,-0.616 0.748,-1.188 1.32,-1.584 0.615,-0.308 1.318,-0.484 2.022,-0.44 h 3.077 c 0.88,0 1.759,0.088 2.594,0.352 0.66,0.176 1.231,0.572 1.671,1.056 0.44,0.528 0.748,1.1 0.88,1.76 0.175,0.836 0.263,1.672 0.263,2.507 v 8.448 z m 11.959,0 c -1.715,0 -3.034,-0.396 -3.957,-1.144 -0.923,-0.748 -1.407,-2.024 -1.451,-3.784 v -4.136 c 0,-1.76 0.484,-3.035 1.407,-3.783 0.923,-0.748 2.286,-1.144 3.957,-1.144 h 5.804 a 5.58,5.58 0 0 1 1.495,0.22 3.75,3.75 0 0 1 1.099,0.572 c 0.264,0.22 0.527,0.44 0.703,0.748 0.132,0.22 0.264,0.484 0.396,0.704 l -1.89,1.98 a 3.296,3.296 0 0 0 -0.66,-0.88 2,2 0 0 0 -1.32,-0.352 h -5.583 a 1.846,1.846 0 0 0 -1.407,0.484 c -0.352,0.396 -0.572,0.924 -0.528,1.451 v 4.092 a 1.821,1.821 0 0 0 0.528,1.452 c 0.396,0.352 0.923,0.528 1.407,0.484 h 5.716 a 2,2 0 0 0 1.319,-0.352 c 0.263,-0.22 0.483,-0.528 0.66,-0.836 l 1.934,1.936 c -0.132,0.264 -0.264,0.484 -0.396,0.704 -0.22,0.264 -0.44,0.528 -0.703,0.748 a 3.75,3.75 0 0 1 -1.1,0.572 3.439,3.439 0 0 1 -1.494,0.22 h -5.936 z m 12.223,-15.31 v -3.74 h 3.517 v 3.74 z m 0,15.31 V 22.579 h 3.473 v 14.079 z m 18.378,0 V 27.77 c 0.044,-0.571 -0.132,-1.143 -0.44,-1.627 -0.263,-0.352 -0.791,-0.528 -1.494,-0.528 h -4.53 c -0.395,-0.044 -0.79,0.088 -1.142,0.308 a 2.105,2.105 0 0 0 -0.572,1.012 v 9.679 h -3.473 V 22.535 h 3.341 v 2.024 c 0.264,-0.616 0.748,-1.188 1.32,-1.584 0.615,-0.308 1.318,-0.484 1.978,-0.44 h 3.078 c 0.879,0 1.758,0.088 2.55,0.352 0.66,0.176 1.23,0.572 1.67,1.056 0.44,0.528 0.748,1.1 0.88,1.76 0.176,0.836 0.264,1.672 0.264,2.507 v 8.448 z m 18.115,-3.828 c -0.176,0.396 -0.44,0.748 -0.704,1.056 -0.264,0.264 -0.527,0.484 -0.88,0.616 a 3.44,3.44 0 0 1 -1.098,0.308 c -0.484,0.044 -1.012,0.088 -1.495,0.088 h -2.418 c -0.88,0.044 -1.715,-0.088 -2.55,-0.308 a 3.798,3.798 0 0 1 -1.671,-0.968 3.625,3.625 0 0 1 -0.88,-1.672 10.929,10.929 0 0 1 -0.263,-2.376 V 28.21 c 0,-0.835 0.087,-1.671 0.263,-2.507 0.132,-0.66 0.44,-1.232 0.88,-1.76 0.44,-0.484 1.01,-0.836 1.67,-1.056 0.836,-0.264 1.715,-0.352 2.55,-0.352 h 3.034 c 0.308,0 0.616,0.044 0.968,0.088 0.351,0.044 0.703,0.176 1.055,0.308 0.351,0.132 0.703,0.352 0.967,0.616 0.308,0.308 0.572,0.66 0.703,1.056 V 22.535 H 316 v 11.79 c 0,0.837 -0.088,1.629 -0.264,2.42 -0.176,0.749 -0.483,1.453 -0.967,2.024 -0.572,0.616 -1.231,1.1 -2.023,1.408 a 8.947,8.947 0 0 1 -3.385,0.528 c -0.616,0 -1.275,-0.044 -1.89,-0.132 -0.616,-0.088 -1.232,-0.264 -1.803,-0.44 l 0.44,-2.771 c 0.527,0.176 1.01,0.264 1.538,0.352 0.528,0.088 1.055,0.088 1.583,0.088 0.528,0 1.1,-0.088 1.583,-0.264 a 2.344,2.344 0 0 0 1.011,-0.704 2.56,2.56 0 0 0 0.528,-1.1 c 0.088,-0.484 0.132,-0.968 0.132,-1.452 V 32.83 Z m 0,-5.851 c -0.088,-0.396 -0.308,-0.792 -0.66,-1.012 a 2.6,2.6 0 0 0 -1.275,-0.308 h -4.397 c -0.351,0 -0.703,0.044 -1.01,0.132 a 1.35,1.35 0 0 0 -0.66,0.44 c -0.176,0.264 -0.308,0.528 -0.352,0.836 -0.088,0.44 -0.132,0.923 -0.088,1.363 v 0.924 c 0,0.484 0.044,0.968 0.132,1.452 0.044,0.308 0.176,0.616 0.352,0.836 0.175,0.22 0.395,0.352 0.659,0.396 0.308,0.088 0.66,0.088 1.011,0.088 h 4.177 a 2.92,2.92 0 0 0 1.495,-0.264 c 0.396,-0.22 0.616,-0.616 0.704,-1.056 V 26.98 h -0.088 z" />
  </g>
  <g
     id="g860"
     transform="matrix(0.39975847,0,0,0.39975847,-1.3531101e-4,8.2058701e-5)">
    <path
       style="fill:#3973b9;fill-rule:evenodd"
       inkscape:connector-curvature="0"
       id="path10"
       d="M 60.243,41.805 C 53.252,59.932 40.765,64.111 24.41,61.603 c 11.035,5.72 32.096,1.056 37.811,-19.27 l 5.804,2.948 C 65.959,56.324 56.285,67.279 40.897,69.919 25.597,72.69 10.34,64.815 3.657,50.736 4.404,51 4.932,51.176 5.46,51.352 c 6.815,2.552 13.805,4.224 21.104,3.96 11.387,-0.44 19.83,-5.632 24.797,-16.103 a 20.7,20.7 0 0 0 0.66,-1.627 z" />
    <path
       style="fill:#aaa6a5;fill-rule:evenodd"
       inkscape:connector-curvature="0"
       id="path12"
       d="M 11.043,50.78 C 8.01,49.636 5.328,48.713 2.69,47.657 A 2.015,2.015 0 0 1 1.854,46.513 C -1.926,34.062 0.008,22.623 8.274,12.548 15.66,3.528 25.464,-0.52 37.072,0.053 a 32.29,32.29 0 0 1 16.664,5.632 l -4.529,4.751 C 36.237,4.101 24.453,5.333 14.297,15.76 6.647,23.547 3.305,37.318 11.043,50.78 Z" />
    <path
       style="fill:#3973b9;fill-rule:evenodd"
       inkscape:connector-curvature="0"
       id="path14"
       d="m 45.338,37.758 c 0,2.067 0.044,4.223 0,6.335 a 1.21,1.21 0 0 1 -0.352,0.66 c -2.418,2.728 -5.408,4.84 -8.793,6.16 C 36.149,38.505 36.061,26.275 36.017,13.956 l 9.189,-0.044 c 0.044,6.071 0.088,12.055 0.044,17.994" />
    <path
       style="fill:#aaa6a5;fill-rule:evenodd"
       inkscape:connector-curvature="0"
       id="path16"
       d="m 24.278,22.051 9.057,-0.044 c 0.044,0.528 0.088,1.012 0.088,1.54 0.044,8.931 0.088,17.818 0.176,26.75 0,1.187 -0.22,1.803 -1.495,1.935 -2.506,0.264 -5.012,0.616 -7.694,0.968 z" />
    <path
       style="fill:#3973b9;fill-rule:evenodd"
       inkscape:connector-curvature="0"
       id="path18"
       d="m 21.771,52.892 a 383.97,383.97 0 0 1 -8.749,-1.76 C 12.67,50.956 12.45,50.604 12.45,50.252 12.406,43.433 12.406,36.614 12.406,29.794 c 0,-0.044 0.044,-0.088 0.176,-0.22 l 9.102,-0.044 c 0,7.744 0.044,15.399 0.087,23.362 z" />
  </g>
</svg>
